<svg id="Component_4_6" data-name="Component 4 – 6" xmlns="http://www.w3.org/2000/svg" xmlns:xlink="http://www.w3.org/1999/xlink" width="304.022" height="57.179" viewBox="0 0 304.022 57.179">
  <defs>
    <clipPath id="clip-path">
      <rect id="Rectangle_46" data-name="Rectangle 46" width="45.099" height="57.179" transform="translate(0 0)" fill="#9e005d"/>
    </clipPath>
    <clipPath id="clip-path-2">
      <rect id="Rectangle_47" data-name="Rectangle 47" width="251.909" height="34.295" fill="none"/>
    </clipPath>
  </defs>
  <g id="Group_679" data-name="Group 679" transform="translate(258.923)">
    <g id="Group_678" data-name="Group 678" clip-path="url(#clip-path)">
      <path id="Path_8107" data-name="Path 8107" d="M43.91,11.667l-.064-.163C40.292,4.059,32.081-.446,22.954.036,15,.453,8.481,4.618,6.344,10.648a6.565,6.565,0,0,0-.372,2.2v7.855a2.408,2.408,0,0,1-.708,1.712L.925,26.757a3.161,3.161,0,0,0-.681,3.451,3.193,3.193,0,0,0,2.989,1.937H4.581a.994.994,0,0,1,.993.993v7.509a3.447,3.447,0,0,0,3.443,3.444h7.45A1.507,1.507,0,0,1,17.972,45.6v7.111l.655.345c5.174,2.717,11.564,4.1,18.993,4.123l1.228,0V38.942a11.555,11.555,0,0,1,.586-3.646,26.339,26.339,0,0,1,3.57-7,8.548,8.548,0,0,0,1.351-2.92,25.129,25.129,0,0,0-.444-13.707M41.976,24.786a6.1,6.1,0,0,1-.967,2.085,28.813,28.813,0,0,0-3.9,7.653,14.015,14.015,0,0,0-.71,4.418V54.71a38.2,38.2,0,0,1-15.977-3.493V45.6a3.96,3.96,0,0,0-3.955-3.956H9.016a1,1,0,0,1-.993-.994V33.138a3.447,3.447,0,0,0-3.442-3.444H3.232a.778.778,0,0,1-.725-.421.708.708,0,0,1,.149-.784L7,24.149a4.84,4.84,0,0,0,1.426-3.444V12.85a4.12,4.12,0,0,1,.231-1.383c1.806-5.093,7.47-8.619,14.43-8.984,6.162-.324,14.7,2.1,18.516,10a22.7,22.7,0,0,1,.378,12.3" transform="translate(0 -0.001)" fill="#9e005d"/>
      <path id="Path_8108" data-name="Path 8108" d="M51.363,24.1h0a1.224,1.224,0,0,0-1.713.256L44.9,30.781l-2.972-3.764A1.225,1.225,0,1,0,40,28.536l3.974,5.033a1.194,1.194,0,0,0,.952.454h.019a1.217,1.217,0,0,0,.963-.493l5.707-7.716a1.226,1.226,0,0,0-.256-1.714" transform="translate(-20.273 -12.168)" fill="#d4145a"/>
      <path id="Path_8109" data-name="Path 8109" d="M39.428,9.367A12.183,12.183,0,1,0,51.607,21.55,12.2,12.2,0,0,0,39.428,9.367m0,21.917a9.733,9.733,0,1,1,9.73-9.733,9.742,9.742,0,0,1-9.73,9.733" transform="translate(-13.9 -4.777)" fill="#ffc326"/>
    </g>
  </g>
  <g id="Group_681" data-name="Group 681" transform="translate(0 17.277)">
    <g id="Group_680" data-name="Group 680" transform="translate(0 0)" clip-path="url(#clip-path-2)">
      <path id="Path_8110" data-name="Path 8110" d="M0,1.989a6.386,6.386,0,0,1,.881-.073,2.321,2.321,0,0,1,1.688.605,2.272,2.272,0,0,1,.624,1.707V26.59H0Zm3.854,12.1V12.913l8.773-9.787a4.648,4.648,0,0,1,1.046-.881,2.036,2.036,0,0,1,1.009-.256,3.862,3.862,0,0,1,2.129.77L7.3,13.354l10.2,13.089a4.917,4.917,0,0,1-2.019.441A3.388,3.388,0,0,1,14,26.59a3.814,3.814,0,0,1-1.23-1.066Z" transform="translate(0 -0.521)" fill="#d4145a"/>
      <path id="Path_8111" data-name="Path 8111" d="M27.021,11.876a5.782,5.782,0,0,1,.624-.037,2.588,2.588,0,0,1,1.616.478,1.967,1.967,0,0,1,.734,1.4,7.074,7.074,0,0,1,2.514-1.6,8.9,8.9,0,0,1,3.212-.57,6.228,6.228,0,0,1,3.653.991A4.807,4.807,0,0,1,41.264,15.4a15.327,15.327,0,0,1,.256,3.379V29.206H38.4V18.889a9.973,9.973,0,0,0-.221-2.534,2.408,2.408,0,0,0-1.138-1.505,4.724,4.724,0,0,0-2.312-.477,7.144,7.144,0,0,0-2.368.367,4.141,4.141,0,0,0-1.633.973,1.813,1.813,0,0,0-.587,1.267V29.206H27.021Z" transform="translate(-7.347 -3.137)" fill="#d4145a"/>
      <path id="Path_8112" data-name="Path 8112" d="M68.177,20.5a11.692,11.692,0,0,1-.973,4.938,7.12,7.12,0,0,1-2.79,3.213,8.229,8.229,0,0,1-4.349,1.1,7.457,7.457,0,0,1-5.946-2.4,9.937,9.937,0,0,1-2.093-6.738,10.618,10.618,0,0,1,1.046-4.81,7.426,7.426,0,0,1,2.882-3.176,8.221,8.221,0,0,1,4.258-1.084A7.388,7.388,0,0,1,66.1,13.932,9.69,9.69,0,0,1,68.177,20.5m-3.3.036q0-6.279-4.735-6.279a4.214,4.214,0,0,0-3.6,1.671,7.547,7.547,0,0,0-1.249,4.608,8.244,8.244,0,0,0,1.23,4.847,4.08,4.08,0,0,0,3.542,1.725,4.156,4.156,0,0,0,3.6-1.671,8.3,8.3,0,0,0,1.212-4.9" transform="translate(-14.147 -3.137)" fill="#d4145a"/>
      <path id="Path_8113" data-name="Path 8113" d="M75.823,12.205a6.409,6.409,0,0,1,1.616-.257,2.318,2.318,0,0,1,2.312,1.91l3.78,12.116,3.524-8.629-1.872-5.177a5.076,5.076,0,0,1,1.469-.221,2.26,2.26,0,0,1,2.275,1.763l4.4,12.3,3.01-11.639a4.022,4.022,0,0,1,.9-1.854,1.963,1.963,0,0,1,1.45-.57,4.44,4.44,0,0,1,1.506.294L94.948,29.463H91.827l-3.45-8.923L84.6,29.463h-2.79Z" transform="translate(-20.617 -3.246)" fill="#d4145a"/>
      <path id="Path_8114" data-name="Path 8114" d="M112.675.037a6.071,6.071,0,0,1,.66-.037,2.191,2.191,0,0,1,2.459,2.5V22.619a4.37,4.37,0,0,0,.146,1.395.948.948,0,0,0,.514.532,2.8,2.8,0,0,0,1.1.165v1.322a6.542,6.542,0,0,1-2.019.257,3.436,3.436,0,0,1-1.615-.331,2.068,2.068,0,0,1-.936-1.046,6.594,6.594,0,0,1-.312-2.4Z" transform="translate(-30.638 0)" fill="#d4145a"/>
      <path id="Path_8115" data-name="Path 8115" d="M125.233,21.165a6.813,6.813,0,0,0,1.487,4.406,5.012,5.012,0,0,0,3.945,1.543,6.062,6.062,0,0,0,4.845-2.093,6.728,6.728,0,0,1,.734,1.12,2.145,2.145,0,0,1,.293.9,1.682,1.682,0,0,1-.807,1.249,8.81,8.81,0,0,1-5.359,1.468,7.947,7.947,0,0,1-6.2-2.386Q122,24.984,122,20.431a10.42,10.42,0,0,1,1.009-4.773,7.25,7.25,0,0,1,2.826-3.047,7.869,7.869,0,0,1,4.055-1.065,7.359,7.359,0,0,1,3.818.936,6.053,6.053,0,0,1,2.4,2.662,9.09,9.09,0,0,1,.826,3.966,13.435,13.435,0,0,1-.11,2.057Zm8.589-2.35q0-4.7-4.074-4.7a4.169,4.169,0,0,0-3.157,1.267,5.308,5.308,0,0,0-1.358,3.433Z" transform="translate(-33.174 -3.137)" fill="#d4145a"/>
      <path id="Path_8116" data-name="Path 8116" d="M158.162,24.6a7.1,7.1,0,0,1-10.2-.294q-1.908-2.313-1.908-6.61a12.337,12.337,0,0,1,.918-5.012,7.143,7.143,0,0,1,2.587-3.176,6.81,6.81,0,0,1,3.836-1.1,6.677,6.677,0,0,1,4.7,1.8V.036a6.08,6.08,0,0,1,.66-.036,2.191,2.191,0,0,1,2.459,2.5V26.07h-3.046Zm-.074-11.639A6.886,6.886,0,0,0,156,11.474a5.637,5.637,0,0,0-2.129-.385,3.869,3.869,0,0,0-3.34,1.634,7.8,7.8,0,0,0-1.174,4.609q0,6.646,4.661,6.646a5.411,5.411,0,0,0,2.864-.735,2.053,2.053,0,0,0,1.212-1.689Z" transform="translate(-39.713 0)" fill="#d4145a"/>
      <path id="Path_8117" data-name="Path 8117" d="M184.075,27.737a7.1,7.1,0,0,1-10.2-.294q-1.908-2.313-1.908-6.61a12.561,12.561,0,0,1,.9-5.012,7.081,7.081,0,0,1,2.551-3.176,6.72,6.72,0,0,1,3.817-1.1,6.407,6.407,0,0,1,4.845,1.873,2,2,0,0,1,.789-1.138,2.226,2.226,0,0,1,1.34-.441,4.813,4.813,0,0,1,.918.074V27.994a14.519,14.519,0,0,1-.845,5.453,5.775,5.775,0,0,1-2.7,3.011,10.384,10.384,0,0,1-4.827.973,10.632,10.632,0,0,1-5.139-1.138,3.374,3.374,0,0,1-.936-.771,1.267,1.267,0,0,1-.276-.771,3.6,3.6,0,0,1,1.175-2.02,4.669,4.669,0,0,0,1.193.881,8.564,8.564,0,0,0,1.945.845,7.287,7.287,0,0,0,2.037.294,6.653,6.653,0,0,0,3.047-.606,3.66,3.66,0,0,0,1.726-1.983,11.892,11.892,0,0,0,.55-4.168ZM184,16.1a5.671,5.671,0,0,0-4.221-1.873,3.869,3.869,0,0,0-3.34,1.634,7.8,7.8,0,0,0-1.174,4.609q0,6.646,4.661,6.646a5.411,5.411,0,0,0,2.864-.735A2.054,2.054,0,0,0,184,24.69Z" transform="translate(-46.759 -3.137)" fill="#d4145a"/>
      <path id="Path_8118" data-name="Path 8118" d="M201.1,21.165a6.813,6.813,0,0,0,1.487,4.406,5.012,5.012,0,0,0,3.946,1.543,6.062,6.062,0,0,0,4.845-2.093,6.729,6.729,0,0,1,.734,1.12,2.145,2.145,0,0,1,.293.9,1.682,1.682,0,0,1-.807,1.249,8.81,8.81,0,0,1-5.359,1.468,7.947,7.947,0,0,1-6.2-2.386q-2.166-2.387-2.165-6.94a10.419,10.419,0,0,1,1.009-4.773,7.25,7.25,0,0,1,2.826-3.047,7.869,7.869,0,0,1,4.055-1.065,7.359,7.359,0,0,1,3.818.936,6.053,6.053,0,0,1,2.4,2.662,9.09,9.09,0,0,1,.826,3.966,13.44,13.44,0,0,1-.11,2.057Zm8.589-2.35q0-4.7-4.074-4.7a4.169,4.169,0,0,0-3.157,1.267,5.308,5.308,0,0,0-1.358,3.433Z" transform="translate(-53.804 -3.137)" fill="#d4145a"/>
      <path id="Path_8119" data-name="Path 8119" d="M239.132,6.846a8.255,8.255,0,0,0-2.624-1.983,7.35,7.35,0,0,0-3.066-.625,6.578,6.578,0,0,0-5.616,2.607q-1.947,2.608-1.946,7.38t2.02,7.4a6.915,6.915,0,0,0,5.836,2.625,7.139,7.139,0,0,0,3.138-.734A7.988,7.988,0,0,0,239.5,21.5a4.353,4.353,0,0,1,.918,1.01,1.953,1.953,0,0,1,.4.973,1.544,1.544,0,0,1-.514,1.1,7.834,7.834,0,0,1-2.936,1.763,11.614,11.614,0,0,1-3.964.661q-5.251,0-8.039-3.342t-2.789-9.4q0-6.059,2.845-9.455a9.882,9.882,0,0,1,8.02-3.4,11.244,11.244,0,0,1,3.579.569,8.808,8.808,0,0,1,2.716,1.377A2.156,2.156,0,0,1,240.746,4.9a3.581,3.581,0,0,1-.954,1.946Z" transform="translate(-60.522 -0.384)" fill="#9e005d"/>
      <path id="Path_8120" data-name="Path 8120" d="M252.219.037a6.092,6.092,0,0,1,.66-.037,2.413,2.413,0,0,1,1.836.625A2.644,2.644,0,0,1,255.3,2.5v8.079a6.088,6.088,0,0,1,2.367-1.6,8.62,8.62,0,0,1,3.176-.57,6.466,6.466,0,0,1,3.762,1.028,4.521,4.521,0,0,1,1.89,2.827,15.259,15.259,0,0,1,.257,3.378V26.071h-3.12V15.752q0-.7-.018-1.34a4.161,4.161,0,0,0-.2-1.193q-.515-1.983-3.45-1.983a6.973,6.973,0,0,0-2.387.386,4.286,4.286,0,0,0-1.651.991,1.813,1.813,0,0,0-.588,1.267V26.071h-3.12Z" transform="translate(-68.582 0)" fill="#9e005d"/>
      <path id="Path_8121" data-name="Path 8121" d="M280.5,21.165a6.813,6.813,0,0,0,1.487,4.406,5.012,5.012,0,0,0,3.945,1.543,6.062,6.062,0,0,0,4.845-2.093,6.729,6.729,0,0,1,.734,1.12,2.146,2.146,0,0,1,.293.9A1.682,1.682,0,0,1,291,28.289a8.81,8.81,0,0,1-5.359,1.468,7.947,7.947,0,0,1-6.2-2.386q-2.166-2.387-2.165-6.94a10.419,10.419,0,0,1,1.009-4.773,7.25,7.25,0,0,1,2.826-3.047,7.869,7.869,0,0,1,4.055-1.065,7.359,7.359,0,0,1,3.818.936,6.053,6.053,0,0,1,2.4,2.662,9.09,9.09,0,0,1,.826,3.966,13.44,13.44,0,0,1-.11,2.057Zm8.589-2.35q0-4.7-4.074-4.7a4.169,4.169,0,0,0-3.157,1.267,5.308,5.308,0,0,0-1.358,3.433Z" transform="translate(-75.395 -3.137)" fill="#9e005d"/>
      <path id="Path_8122" data-name="Path 8122" d="M314.095,16.281a5.881,5.881,0,0,0-1.945-1.542,5.514,5.514,0,0,0-2.349-.477,4.724,4.724,0,0,0-3.891,1.67,7.169,7.169,0,0,0-1.358,4.645,7.434,7.434,0,0,0,1.4,4.828,4.825,4.825,0,0,0,3.964,1.708,5.031,5.031,0,0,0,3.12-1.028,4.917,4.917,0,0,0,1.174-1.028,3.306,3.306,0,0,1,1.212,2.02q0,.515-.77,1.176a5.461,5.461,0,0,1-2.13,1.1,10.693,10.693,0,0,1-3.046.4,8.691,8.691,0,0,1-4.368-1.064,6.774,6.774,0,0,1-2.826-3.1,11.675,11.675,0,0,1-.954-4.975,10.04,10.04,0,0,1,1.1-4.9,7.666,7.666,0,0,1,3.064-3.084,8.5,8.5,0,0,1,4.166-1.083,9.256,9.256,0,0,1,2.9.422,6.009,6.009,0,0,1,2.055,1.083,1.8,1.8,0,0,1,.771,1.285,3.718,3.718,0,0,1-.881,1.946Z" transform="translate(-81.933 -3.137)" fill="#9e005d"/>
      <path id="Path_8123" data-name="Path 8123" d="M324.915.037a6.081,6.081,0,0,1,.66-.037,2.191,2.191,0,0,1,2.459,2.5V26.071h-3.12Zm3.964,17V15.826l6.313-6.279a3.184,3.184,0,0,1,2.092-.954,2.712,2.712,0,0,1,1.871.771L332.11,16.3l8.148,9.73a5.192,5.192,0,0,1-1.836.33,3.44,3.44,0,0,1-2.753-1.322Z" transform="translate(-88.349 0)" fill="#9e005d"/>
    </g>
  </g>
</svg>
