<svg id="CB_Icon" data-name="CB Icon" xmlns="http://www.w3.org/2000/svg" xmlns:xlink="http://www.w3.org/1999/xlink" width="68" height="68" viewBox="0 0 68 68">
  <defs>
    <clipPath id="clip-path">
      <rect id="Rectangle_13" data-name="Rectangle 13" width="50.405" height="41.433" fill="#fff"/>
    </clipPath>
  </defs>
  <circle id="Ellipse_2" data-name="Ellipse 2" cx="34" cy="34" r="34" fill="#d4145a"/>
  <g id="Group_9" data-name="Group 9" transform="translate(8.798 8.567)">
    <g id="Group_8" data-name="Group 8" clip-path="url(#clip-path)">
      <path id="Path_3" data-name="Path 3" d="M19.887,50.392a9.163,9.163,0,0,0-3.029-2.4,8.6,8.6,0,0,0-3.657-.743,7.359,7.359,0,0,0-6.058,2.6,11.156,11.156,0,0,0-2.115,7.229q0,4.858,2.171,7.515a7.518,7.518,0,0,0,6.172,2.657,7.831,7.831,0,0,0,4.858-1.6,7.635,7.635,0,0,0,1.829-1.6q1.886,1.886,1.886,3.143,0,.8-1.2,1.829a8.473,8.473,0,0,1-3.315,1.714,16.636,16.636,0,0,1-4.743.629,13.524,13.524,0,0,1-6.8-1.657,10.535,10.535,0,0,1-4.4-4.829A18.157,18.157,0,0,1,0,57.135a15.635,15.635,0,0,1,1.715-7.629,11.937,11.937,0,0,1,4.772-4.8,13.238,13.238,0,0,1,6.486-1.686,14.451,14.451,0,0,1,4.515.657,9.367,9.367,0,0,1,3.2,1.686,2.8,2.8,0,0,1,1.2,2,5.782,5.782,0,0,1-1.372,3.029Z" transform="translate(0.001 -29.933)" fill="#fff"/>
      <path id="Path_4" data-name="Path 4" d="M87.916.057A9.485,9.485,0,0,1,88.945,0q3.828,0,3.829,3.886V16a10.579,10.579,0,0,1,7.829-2.914,9.847,9.847,0,0,1,8.086,3.543q2.885,3.544,2.886,10.173a20.056,20.056,0,0,1-1.4,7.972,10.536,10.536,0,0,1-10.144,6.658,10.7,10.7,0,0,1-4.429-.886A7.009,7.009,0,0,1,92.66,38.29v2.286H87.916Zm4.858,34.06a7.748,7.748,0,0,0,2.8,2.257,8.073,8.073,0,0,0,3.658.886,6.116,6.116,0,0,0,5.315-2.572q1.828-2.572,1.829-7.6,0-9.886-7.258-9.887a8.178,8.178,0,0,0-4.544,1.172,3.4,3.4,0,0,0-1.8,2.886Z" transform="translate(-61.171)" fill="#fff"/>
    </g>
  </g>
</svg>
